<svg width="64" height="64" viewBox="0 0 64 64" xmlns="http://www.w3.org/2000/svg">
  <defs>
    <linearGradient id="bg" x1="10" y1="6" x2="54" y2="58" gradientUnits="userSpaceOnUse">
      <stop stop-color="#3B82F6" />
      <stop offset="1" stop-color="#1D4ED8" />
    </linearGradient>
    <linearGradient id="glass" x1="18" y1="20" x2="46" y2="50" gradientUnits="userSpaceOnUse">
      <stop stop-color="#DBEAFE" />
      <stop offset="1" stop-color="#93C5FD" />
    </linearGradient>
  </defs>
  <rect x="6" y="6" width="52" height="52" rx="15" fill="url(#bg)" />
  <path d="M18 31.5L32 19L46 31.5V47C46 49.7614 43.7614 52 41 52H23C20.2386 52 18 49.7614 18 47V31.5Z" fill="white" />
  <path d="M15.5 31.5L32 17L48.5 31.5" stroke="white" stroke-width="4" stroke-linecap="round" stroke-linejoin="round" />
  <rect x="28" y="37" width="8" height="15" rx="2.5" fill="#1D4ED8" />
  <rect x="22.5" y="34.5" width="4.5" height="4.5" rx="1.2" fill="url(#glass)" />
  <rect x="22.5" y="41.5" width="4.5" height="4.5" rx="1.2" fill="url(#glass)" />
  <rect x="37" y="34.5" width="4.5" height="4.5" rx="1.2" fill="url(#glass)" />
  <rect x="37" y="41.5" width="4.5" height="4.5" rx="1.2" fill="url(#glass)" />
  <rect x="12" y="12" width="40" height="12" rx="6" fill="white" fill-opacity="0.08" />
</svg>
