<svg width="600" height="120" viewBox="0 0 600 120" fill="none" xmlns="http://www.w3.org/2000/svg">
  <rect width="600" height="120" fill="transparent"/>
  <!-- Simple stylized skyline silhouettes -->
  <g fill="#0b2a55" opacity="0.6">
    <rect x="0" y="50" width="40" height="70"/>
    <rect x="35" y="30" width="30" height="90"/>
    <rect x="60" y="60" width="28" height="60"/>
    <rect x="85" y="45" width="38" height="75"/>
    <rect x="120" y="55" width="24" height="65"/>
    <rect x="145" y="20" width="34" height="100"/>
    <rect x="176" y="65" width="22" height="55"/>
    <rect x="198" y="40" width="44" height="80"/>
    <rect x="240" y="55" width="24" height="65"/>
    <rect x="262" y="48" width="36" height="72"/>
    <rect x="298" y="65" width="22" height="55"/>
    <rect x="320" y="25" width="40" height="95"/>
    <rect x="360" y="50" width="30" height="70"/>
    <rect x="390" y="60" width="26" height="60"/>
    <rect x="416" y="42" width="36" height="78"/>
    <rect x="452" y="30" width="30" height="90"/>
    <rect x="482" y="58" width="26" height="62"/>
    <rect x="508" y="45" width="34" height="75"/>
    <rect x="542" y="62" width="22" height="58"/>
    <rect x="564" y="28" width="36" height="92"/>
  </g>
  <!-- Antenna and spires -->
  <g stroke="#0b2a55" stroke-width="2" opacity="0.7">
    <line x1="160" y1="20" x2="160" y2="10"/>
    <line x1="340" y1="25" x2="340" y2="12"/>
    <line x1="570" y1="28" x2="570" y2="14"/>
  </g>
</svg>
